<mxfile host="Electron" agent="Mozilla/5.0 (X11; Linux x86_64) AppleWebKit/537.36 (KHTML, like Gecko) draw.io/26.0.4 Chrome/128.0.6613.186 Electron/32.2.5 Safari/537.36" version="26.0.4">
  <diagram name="Page-1" id="WPj85zP30hxwSL901bNB">
    <mxGraphModel dx="1207" dy="1198" grid="1" gridSize="10" guides="1" tooltips="1" connect="1" arrows="1" fold="1" page="1" pageScale="1" pageWidth="850" pageHeight="1100" math="0" shadow="0">
      <root>
        <mxCell id="0" />
        <mxCell id="1" parent="0" />
        <mxCell id="78122XxH-lwuJQamGVVX-2" value="Availability zone" style="sketch=0;outlineConnect=0;gradientColor=none;html=1;whiteSpace=wrap;fontSize=12;fontStyle=0;shape=mxgraph.aws4.group;grIcon=mxgraph.aws4.group_availability_zone;strokeColor=#545B64;fillColor=none;verticalAlign=top;align=left;spacingLeft=30;fontColor=#545B64;dashed=1;" vertex="1" parent="1">
          <mxGeometry x="280" y="340" width="330" height="310" as="geometry" />
        </mxCell>
        <mxCell id="78122XxH-lwuJQamGVVX-3" value="EC2" style="sketch=0;outlineConnect=0;fontColor=#232F3E;gradientColor=none;fillColor=#ED7100;strokeColor=none;dashed=0;verticalLabelPosition=middle;verticalAlign=middle;align=center;html=1;fontSize=12;fontStyle=0;aspect=fixed;pointerEvents=1;shape=mxgraph.aws4.instance2;labelPosition=center;" vertex="1" parent="1">
          <mxGeometry x="300" y="380" width="88" height="88" as="geometry" />
        </mxCell>
        <mxCell id="78122XxH-lwuJQamGVVX-5" value="Eth0 - Primary ENI&lt;div&gt;192.168.0.31&lt;/div&gt;" style="sketch=0;outlineConnect=0;fontColor=#232F3E;gradientColor=none;fillColor=#8C4FFF;strokeColor=none;dashed=0;verticalLabelPosition=middle;verticalAlign=middle;align=left;html=1;fontSize=12;fontStyle=0;aspect=fixed;pointerEvents=1;shape=mxgraph.aws4.elastic_network_interface;labelPosition=right;spacingBottom=-1;spacingLeft=5;" vertex="1" parent="1">
          <mxGeometry x="405" y="380" width="42" height="42" as="geometry" />
        </mxCell>
        <mxCell id="78122XxH-lwuJQamGVVX-10" style="edgeStyle=orthogonalEdgeStyle;rounded=0;orthogonalLoop=1;jettySize=auto;html=1;" edge="1" parent="1" source="78122XxH-lwuJQamGVVX-6" target="78122XxH-lwuJQamGVVX-9">
          <mxGeometry relative="1" as="geometry">
            <Array as="points">
              <mxPoint x="426" y="510" />
              <mxPoint x="590" y="510" />
              <mxPoint x="590" y="610" />
            </Array>
          </mxGeometry>
        </mxCell>
        <mxCell id="78122XxH-lwuJQamGVVX-6" value="Eth1 - Secondary ENI&lt;div&gt;192.168.0.42&lt;/div&gt;" style="sketch=0;outlineConnect=0;fontColor=#232F3E;gradientColor=none;fillColor=#8C4FFF;strokeColor=none;dashed=0;verticalLabelPosition=middle;verticalAlign=middle;align=left;html=1;fontSize=12;fontStyle=0;aspect=fixed;pointerEvents=1;shape=mxgraph.aws4.elastic_network_interface;labelPosition=right;spacingBottom=-1;spacingLeft=5;" vertex="1" parent="1">
          <mxGeometry x="405" y="430" width="42" height="42" as="geometry" />
        </mxCell>
        <mxCell id="78122XxH-lwuJQamGVVX-7" value="EC2" style="sketch=0;outlineConnect=0;fontColor=#232F3E;gradientColor=none;fillColor=#ED7100;strokeColor=none;dashed=0;verticalLabelPosition=middle;verticalAlign=middle;align=center;html=1;fontSize=12;fontStyle=0;aspect=fixed;pointerEvents=1;shape=mxgraph.aws4.instance2;labelPosition=center;" vertex="1" parent="1">
          <mxGeometry x="300" y="540" width="88" height="88" as="geometry" />
        </mxCell>
        <mxCell id="78122XxH-lwuJQamGVVX-8" value="Eth0 - Primary ENI" style="sketch=0;outlineConnect=0;fontColor=#232F3E;gradientColor=none;fillColor=#8C4FFF;strokeColor=none;dashed=0;verticalLabelPosition=middle;verticalAlign=middle;align=left;html=1;fontSize=12;fontStyle=0;aspect=fixed;pointerEvents=1;shape=mxgraph.aws4.elastic_network_interface;labelPosition=right;spacingBottom=-1;spacingLeft=5;" vertex="1" parent="1">
          <mxGeometry x="405" y="540" width="42" height="42" as="geometry" />
        </mxCell>
        <mxCell id="78122XxH-lwuJQamGVVX-9" value="" style="sketch=0;outlineConnect=0;fontColor=#232F3E;gradientColor=none;fillColor=#8C4FFF;strokeColor=none;dashed=0;verticalLabelPosition=middle;verticalAlign=middle;align=left;html=1;fontSize=12;fontStyle=0;aspect=fixed;pointerEvents=1;shape=mxgraph.aws4.elastic_network_interface;labelPosition=right;spacingBottom=-1;spacingLeft=5;" vertex="1" parent="1">
          <mxGeometry x="405" y="590" width="42" height="42" as="geometry" />
        </mxCell>
        <mxCell id="78122XxH-lwuJQamGVVX-11" value="Can be moved" style="text;html=1;align=center;verticalAlign=middle;resizable=0;points=[];autosize=1;strokeColor=none;fillColor=none;fontStyle=1;fontSize=14;" vertex="1" parent="1">
          <mxGeometry x="460" y="485" width="110" height="30" as="geometry" />
        </mxCell>
      </root>
    </mxGraphModel>
  </diagram>
</mxfile>
